<?xml version="1.0" encoding="UTF-8"?>
<!-- Generator: visioncortex VTracer 0.6.0 -->
<svg version="1.1" xmlns="http://www.w3.org/2000/svg" width="512" height="512">
<path d="M0 0 C31.68 0 63.36 0 96 0 C96 5.28 96 10.56 96 16 C111.84 16 127.68 16 144 16 C144 21.28 144 26.56 144 32 C149.28 32 154.56 32 160 32 C160 37.28 160 42.56 160 48 C165.28 48 170.56 48 176 48 C176 53.28 176 58.56 176 64 C181.28 64 186.56 64 192 64 C192 69.28 192 74.56 192 80 C197.28 80 202.56 80 208 80 C208 85.28 208 90.56 208 96 C213.28 96 218.56 96 224 96 C224 101.28 224 106.56 224 112 C229.28 112 234.56 112 240 112 C240 154.24 240 196.48 240 240 C234.72 240 229.44 240 224 240 C224 245.28 224 250.56 224 256 C218.72 256 213.44 256 208 256 C208 266.56 208 277.12 208 288 C202.72 288 197.44 288 192 288 C192 309.12 192 330.24 192 352 C197.28 352 202.56 352 208 352 C208 357.28 208 362.56 208 368 C218.56 368 229.12 368 240 368 C240 373.28 240 378.56 240 384 C245.28 384 250.56 384 256 384 C256 389.28 256 394.56 256 400 C266.56 400 277.12 400 288 400 C288 405.28 288 410.56 288 416 C293.28 416 298.56 416 304 416 C304 421.28 304 426.56 304 432 C145.6 432 -12.8 432 -176 432 C-176 395.04 -176 358.08 -176 320 C-160.16 320 -144.32 320 -128 320 C-128 314.72 -128 309.44 -128 304 C-122.72 304 -117.44 304 -112 304 C-112 298.72 -112 293.44 -112 288 C-101.44 288 -90.88 288 -80 288 C-80 256.32 -80 224.64 -80 192 C-85.28 192 -90.56 192 -96 192 C-96 176.16 -96 160.32 -96 144 C-101.28 144 -106.56 144 -112 144 C-112 133.44 -112 122.88 -112 112 C-106.72 112 -101.44 112 -96 112 C-96 106.72 -96 101.44 -96 96 C-90.72 96 -85.44 96 -80 96 C-80 85.44 -80 74.88 -80 64 C-74.72 64 -69.44 64 -64 64 C-64 58.72 -64 53.44 -64 48 C-53.44 48 -42.88 48 -32 48 C-32 42.72 -32 37.44 -32 32 C-26.72 32 -21.44 32 -16 32 C-16 26.72 -16 21.44 -16 16 C-10.72 16 -5.44 16 0 16 C0 10.72 0 5.44 0 0 Z " fill="#353130" transform="translate(176,80)"/>
<path d="M0 0 C31.68 0 63.36 0 96 0 C96 5.28 96 10.56 96 16 C111.84 16 127.68 16 144 16 C144 21.28 144 26.56 144 32 C149.28 32 154.56 32 160 32 C160 37.28 160 42.56 160 48 C165.28 48 170.56 48 176 48 C176 53.28 176 58.56 176 64 C181.28 64 186.56 64 192 64 C192 69.28 192 74.56 192 80 C197.28 80 202.56 80 208 80 C208 85.28 208 90.56 208 96 C213.28 96 218.56 96 224 96 C224 101.28 224 106.56 224 112 C229.28 112 234.56 112 240 112 C240 154.24 240 196.48 240 240 C234.72 240 229.44 240 224 240 C224 245.28 224 250.56 224 256 C218.72 256 213.44 256 208 256 C208 250.72 208 245.44 208 240 C202.72 240 197.44 240 192 240 C192 234.72 192 229.44 192 224 C197.28 224 202.56 224 208 224 C208 213.44 208 202.88 208 192 C213.28 192 218.56 192 224 192 C224 176.16 224 160.32 224 144 C213.44 144 202.88 144 192 144 C192 149.28 192 154.56 192 160 C186.72 160 181.44 160 176 160 C176 149.44 176 138.88 176 128 C170.72 128 165.44 128 160 128 C160 138.56 160 149.12 160 160 C154.72 160 149.44 160 144 160 C144 165.28 144 170.56 144 176 C138.72 176 133.44 176 128 176 C128 165.44 128 154.88 128 144 C122.72 144 117.44 144 112 144 C112 133.44 112 122.88 112 112 C106.72 112 101.44 112 96 112 C96 117.28 96 122.56 96 128 C85.44 128 74.88 128 64 128 C64 122.72 64 117.44 64 112 C37.6 112 11.2 112 -16 112 C-16 133.12 -16 154.24 -16 176 C-21.28 176 -26.56 176 -32 176 C-32 181.28 -32 186.56 -32 192 C-26.72 192 -21.44 192 -16 192 C-16 197.28 -16 202.56 -16 208 C-31.84 208 -47.68 208 -64 208 C-64 244.96 -64 281.92 -64 320 C-58.72 320 -53.44 320 -48 320 C-48 325.28 -48 330.56 -48 336 C-42.72 336 -37.44 336 -32 336 C-32 346.56 -32 357.12 -32 368 C-26.72 368 -21.44 368 -16 368 C-16 373.28 -16 378.56 -16 384 C-0.16 384 15.68 384 32 384 C32 394.56 32 405.12 32 416 C10.88 416 -10.24 416 -32 416 C-32 421.28 -32 426.56 -32 432 C-79.52 432 -127.04 432 -176 432 C-176 395.04 -176 358.08 -176 320 C-160.16 320 -144.32 320 -128 320 C-128 314.72 -128 309.44 -128 304 C-122.72 304 -117.44 304 -112 304 C-112 298.72 -112 293.44 -112 288 C-101.44 288 -90.88 288 -80 288 C-80 256.32 -80 224.64 -80 192 C-85.28 192 -90.56 192 -96 192 C-96 176.16 -96 160.32 -96 144 C-101.28 144 -106.56 144 -112 144 C-112 133.44 -112 122.88 -112 112 C-106.72 112 -101.44 112 -96 112 C-96 106.72 -96 101.44 -96 96 C-90.72 96 -85.44 96 -80 96 C-80 85.44 -80 74.88 -80 64 C-74.72 64 -69.44 64 -64 64 C-64 58.72 -64 53.44 -64 48 C-53.44 48 -42.88 48 -32 48 C-32 42.72 -32 37.44 -32 32 C-26.72 32 -21.44 32 -16 32 C-16 26.72 -16 21.44 -16 16 C-10.72 16 -5.44 16 0 16 C0 10.72 0 5.44 0 0 Z " fill="#1B1D1F" transform="translate(176,80)"/>
<path d="M0 0 C10.56 0 21.12 0 32 0 C32 5.28 32 10.56 32 16 C37.28 16 42.56 16 48 16 C48 26.56 48 37.12 48 48 C53.28 48 58.56 48 64 48 C64 58.56 64 69.12 64 80 C69.28 80 74.56 80 80 80 C80 85.28 80 90.56 80 96 C74.72 96 69.44 96 64 96 C64 111.84 64 127.68 64 144 C58.72 144 53.44 144 48 144 C48 149.28 48 154.56 48 160 C42.72 160 37.44 160 32 160 C32 175.84 32 191.68 32 208 C26.72 208 21.44 208 16 208 C16 213.28 16 218.56 16 224 C10.72 224 5.44 224 0 224 C0 229.28 0 234.56 0 240 C-10.56 240 -21.12 240 -32 240 C-32 224.16 -32 208.32 -32 192 C-21.44 192 -10.88 192 0 192 C0 186.72 0 181.44 0 176 C-26.4 176 -52.8 176 -80 176 C-80 160.16 -80 144.32 -80 128 C-74.72 128 -69.44 128 -64 128 C-64 122.72 -64 117.44 -64 112 C-74.56 112 -85.12 112 -96 112 C-96 85.6 -96 59.2 -96 32 C-90.72 32 -85.44 32 -80 32 C-80 26.72 -80 21.44 -80 16 C-69.44 16 -58.88 16 -48 16 C-48 21.28 -48 26.56 -48 32 C-37.44 32 -26.88 32 -16 32 C-16 26.72 -16 21.44 -16 16 C-10.72 16 -5.44 16 0 16 C0 10.72 0 5.44 0 0 Z " fill="#CFA793" transform="translate(272,272)"/>
<path d="M0 0 C10.56 0 21.12 0 32 0 C32 5.28 32 10.56 32 16 C42.56 16 53.12 16 64 16 C64 26.56 64 37.12 64 48 C79.84 48 95.68 48 112 48 C112 53.28 112 58.56 112 64 C106.72 64 101.44 64 96 64 C96 69.28 96 74.56 96 80 C90.72 80 85.44 80 80 80 C80 85.28 80 90.56 80 96 C69.44 96 58.88 96 48 96 C48 90.72 48 85.44 48 80 C37.44 80 26.88 80 16 80 C16 85.28 16 90.56 16 96 C10.72 96 5.44 96 0 96 C0 122.4 0 148.8 0 176 C10.56 176 21.12 176 32 176 C32 181.28 32 186.56 32 192 C26.72 192 21.44 192 16 192 C16 207.84 16 223.68 16 240 C42.4 240 68.8 240 96 240 C96 245.28 96 250.56 96 256 C85.44 256 74.88 256 64 256 C64 271.84 64 287.68 64 304 C32.32 304 0.64 304 -32 304 C-32 298.72 -32 293.44 -32 288 C-10.88 288 10.24 288 32 288 C32 277.44 32 266.88 32 256 C16.16 256 0.32 256 -16 256 C-16 250.72 -16 245.44 -16 240 C-21.28 240 -26.56 240 -32 240 C-32 229.44 -32 218.88 -32 208 C-37.28 208 -42.56 208 -48 208 C-48 202.72 -48 197.44 -48 192 C-53.28 192 -58.56 192 -64 192 C-64 155.04 -64 118.08 -64 80 C-48.16 80 -32.32 80 -16 80 C-16 74.72 -16 69.44 -16 64 C-21.28 64 -26.56 64 -32 64 C-32 58.72 -32 53.44 -32 48 C-26.72 48 -21.44 48 -16 48 C-16 37.44 -16 26.88 -16 16 C-10.72 16 -5.44 16 0 16 C0 10.72 0 5.44 0 0 Z " fill="#432E25" transform="translate(176,208)"/>
<path d="M0 0 C10.56 0 21.12 0 32 0 C32 21.12 32 42.24 32 64 C37.28 64 42.56 64 48 64 C48 69.28 48 74.56 48 80 C58.56 80 69.12 80 80 80 C80 85.28 80 90.56 80 96 C85.28 96 90.56 96 96 96 C96 101.28 96 106.56 96 112 C106.56 112 117.12 112 128 112 C128 117.28 128 122.56 128 128 C133.28 128 138.56 128 144 128 C144 133.28 144 138.56 144 144 C75.36 144 6.72 144 -64 144 C-64 138.72 -64 133.44 -64 128 C-58.72 128 -53.44 128 -48 128 C-48 122.72 -48 117.44 -48 112 C-42.72 112 -37.44 112 -32 112 C-32 96.16 -32 80.32 -32 64 C-26.72 64 -21.44 64 -16 64 C-16 58.72 -16 53.44 -16 48 C-10.72 48 -5.44 48 0 48 C0 32.16 0 16.32 0 0 Z " fill="#36332E" transform="translate(336,368)"/>
<path d="M0 0 C10.56 0 21.12 0 32 0 C32 5.28 32 10.56 32 16 C42.56 16 53.12 16 64 16 C64 21.28 64 26.56 64 32 C69.28 32 74.56 32 80 32 C80 37.28 80 42.56 80 48 C74.72 48 69.44 48 64 48 C64 79.68 64 111.36 64 144 C53.44 144 42.88 144 32 144 C32 149.28 32 154.56 32 160 C21.44 160 10.88 160 0 160 C0 144.16 0 128.32 0 112 C5.28 112 10.56 112 16 112 C16 106.72 16 101.44 16 96 C5.44 96 -5.12 96 -16 96 C-16 69.6 -16 43.2 -16 16 C-10.72 16 -5.44 16 0 16 C0 10.72 0 5.44 0 0 Z " fill="#BC9680" transform="translate(192,288)"/>
<path d="M0 0 C10.56 0 21.12 0 32 0 C32 5.28 32 10.56 32 16 C42.56 16 53.12 16 64 16 C64 26.56 64 37.12 64 48 C79.84 48 95.68 48 112 48 C112 53.28 112 58.56 112 64 C106.72 64 101.44 64 96 64 C96 69.28 96 74.56 96 80 C90.72 80 85.44 80 80 80 C80 85.28 80 90.56 80 96 C69.44 96 58.88 96 48 96 C48 90.72 48 85.44 48 80 C37.44 80 26.88 80 16 80 C16 74.72 16 69.44 16 64 C0.16 64 -15.68 64 -32 64 C-32 58.72 -32 53.44 -32 48 C-26.72 48 -21.44 48 -16 48 C-16 37.44 -16 26.88 -16 16 C-10.72 16 -5.44 16 0 16 C0 10.72 0 5.44 0 0 Z " fill="#855946" transform="translate(176,208)"/>
<path d="M0 0 C5.28 0 10.56 0 16 0 C16 5.28 16 10.56 16 16 C21.28 16 26.56 16 32 16 C32 21.28 32 26.56 32 32 C37.28 32 42.56 32 48 32 C48 42.56 48 53.12 48 64 C53.28 64 58.56 64 64 64 C64 69.28 64 74.56 64 80 C79.84 80 95.68 80 112 80 C112 90.56 112 101.12 112 112 C75.04 112 38.08 112 0 112 C0 90.88 0 69.76 0 48 C5.28 48 10.56 48 16 48 C16 42.72 16 37.44 16 32 C10.72 32 5.44 32 0 32 C0 21.44 0 10.88 0 0 Z " fill="#241F1A" transform="translate(96,384)"/>
<path d="M0 0 C10.56 0 21.12 0 32 0 C32 5.28 32 10.56 32 16 C26.72 16 21.44 16 16 16 C16 31.84 16 47.68 16 64 C42.4 64 68.8 64 96 64 C96 69.28 96 74.56 96 80 C85.44 80 74.88 80 64 80 C64 95.84 64 111.68 64 128 C32.32 128 0.64 128 -32 128 C-32 122.72 -32 117.44 -32 112 C-10.88 112 10.24 112 32 112 C32 101.44 32 90.88 32 80 C16.16 80 0.32 80 -16 80 C-16 58.88 -16 37.76 -16 16 C-10.72 16 -5.44 16 0 16 C0 10.72 0 5.44 0 0 Z " fill="#A6785D" transform="translate(176,384)"/>
<path d="M0 0 C10.56 0 21.12 0 32 0 C32 5.28 32 10.56 32 16 C37.28 16 42.56 16 48 16 C48 52.96 48 89.92 48 128 C32.16 128 16.32 128 0 128 C0 101.6 0 75.2 0 48 C-5.28 48 -10.56 48 -16 48 C-16 37.44 -16 26.88 -16 16 C-10.72 16 -5.44 16 0 16 C0 10.72 0 5.44 0 0 Z " fill="#DEBAA9" transform="translate(272,272)"/>
<path d="M0 0 C10.56 0 21.12 0 32 0 C32 15.84 32 31.68 32 48 C26.72 48 21.44 48 16 48 C16 58.56 16 69.12 16 80 C10.72 80 5.44 80 0 80 C0 85.28 0 90.56 0 96 C5.28 96 10.56 96 16 96 C16 111.84 16 127.68 16 144 C5.44 144 -5.12 144 -16 144 C-16 138.72 -16 133.44 -16 128 C-21.28 128 -26.56 128 -32 128 C-32 117.44 -32 106.88 -32 96 C-37.28 96 -42.56 96 -48 96 C-48 80.16 -48 64.32 -48 48 C-42.72 48 -37.44 48 -32 48 C-32 42.72 -32 37.44 -32 32 C-26.72 32 -21.44 32 -16 32 C-16 42.56 -16 53.12 -16 64 C-10.72 64 -5.44 64 0 64 C0 42.88 0 21.76 0 0 Z " fill="#2B2C32" transform="translate(368,224)"/>
<path d="M0 0 C15.84 0 31.68 0 48 0 C48 5.28 48 10.56 48 16 C53.28 16 58.56 16 64 16 C64 37.12 64 58.24 64 80 C58.72 80 53.44 80 48 80 C48 85.28 48 90.56 48 96 C32.16 96 16.32 96 0 96 C0 64.32 0 32.64 0 0 Z " fill="#201D1B" transform="translate(0,416)"/>
<path d="M0 0 C5.28 0 10.56 0 16 0 C16 10.56 16 21.12 16 32 C21.28 32 26.56 32 32 32 C32 21.44 32 10.88 32 0 C37.28 0 42.56 0 48 0 C48 21.12 48 42.24 48 64 C42.72 64 37.44 64 32 64 C32 69.28 32 74.56 32 80 C37.28 80 42.56 80 48 80 C48 85.28 48 90.56 48 96 C32.16 96 16.32 96 0 96 C0 90.72 0 85.44 0 80 C-5.28 80 -10.56 80 -16 80 C-16 69.44 -16 58.88 -16 48 C-10.72 48 -5.44 48 0 48 C0 32.16 0 16.32 0 0 Z " fill="#242220" transform="translate(112,192)"/>
<path d="M0 0 C5.28 0 10.56 0 16 0 C16 5.28 16 10.56 16 16 C21.28 16 26.56 16 32 16 C32 58.24 32 100.48 32 144 C26.72 144 21.44 144 16 144 C16 149.28 16 154.56 16 160 C10.72 160 5.44 160 0 160 C0 154.72 0 149.44 0 144 C-5.28 144 -10.56 144 -16 144 C-16 138.72 -16 133.44 -16 128 C-10.72 128 -5.44 128 0 128 C0 117.44 0 106.88 0 96 C5.28 96 10.56 96 16 96 C16 80.16 16 64.32 16 48 C10.72 48 5.44 48 0 48 C0 32.16 0 16.32 0 0 Z " fill="#000000" transform="translate(384,176)"/>
<path d="M0 0 C10.56 0 21.12 0 32 0 C32 5.28 32 10.56 32 16 C37.28 16 42.56 16 48 16 C48 21.28 48 26.56 48 32 C42.72 32 37.44 32 32 32 C32 58.4 32 84.8 32 112 C26.72 112 21.44 112 16 112 C16 106.72 16 101.44 16 96 C10.72 96 5.44 96 0 96 C0 85.44 0 74.88 0 64 C-5.28 64 -10.56 64 -16 64 C-16 58.72 -16 53.44 -16 48 C-10.72 48 -5.44 48 0 48 C0 32.16 0 16.32 0 0 Z " fill="#B5826E" transform="translate(224,304)"/>
<path d="M0 0 C5.28 0 10.56 0 16 0 C16 5.28 16 10.56 16 16 C26.56 16 37.12 16 48 16 C48 37.12 48 58.24 48 80 C42.72 80 37.44 80 32 80 C32 85.28 32 90.56 32 96 C21.44 96 10.88 96 0 96 C0 64.32 0 32.64 0 0 Z " fill="#5A3E2F" transform="translate(112,288)"/>
<path d="M0 0 C5.28 0 10.56 0 16 0 C16 5.28 16 10.56 16 16 C26.56 16 37.12 16 48 16 C48 21.28 48 26.56 48 32 C53.28 32 58.56 32 64 32 C64 37.28 64 42.56 64 48 C27.04 48 -9.92 48 -48 48 C-48 37.44 -48 26.88 -48 16 C-32.16 16 -16.32 16 0 16 C0 10.72 0 5.44 0 0 Z " fill="#2C241E" transform="translate(416,464)"/>
<path d="M0 0 C31.68 0 63.36 0 96 0 C96 5.28 96 10.56 96 16 C111.84 16 127.68 16 144 16 C144 21.28 144 26.56 144 32 C122.88 32 101.76 32 80 32 C80 26.72 80 21.44 80 16 C58.88 16 37.76 16 16 16 C16 21.28 16 26.56 16 32 C10.72 32 5.44 32 0 32 C0 37.28 0 42.56 0 48 C-10.56 48 -21.12 48 -32 48 C-32 42.72 -32 37.44 -32 32 C-26.72 32 -21.44 32 -16 32 C-16 26.72 -16 21.44 -16 16 C-10.72 16 -5.44 16 0 16 C0 10.72 0 5.44 0 0 Z " fill="#000000" transform="translate(176,80)"/>
<path d="M0 0 C10.56 0 21.12 0 32 0 C32 21.12 32 42.24 32 64 C26.72 64 21.44 64 16 64 C16 69.28 16 74.56 16 80 C10.72 80 5.44 80 0 80 C0 85.28 0 90.56 0 96 C-5.28 96 -10.56 96 -16 96 C-16 90.72 -16 85.44 -16 80 C-21.28 80 -26.56 80 -32 80 C-32 74.72 -32 69.44 -32 64 C-26.72 64 -21.44 64 -16 64 C-16 58.72 -16 53.44 -16 48 C-10.72 48 -5.44 48 0 48 C0 32.16 0 16.32 0 0 Z " fill="#242019" transform="translate(336,368)"/>
<path d="M0 0 C10.56 0 21.12 0 32 0 C32 15.84 32 31.68 32 48 C26.72 48 21.44 48 16 48 C16 53.28 16 58.56 16 64 C10.72 64 5.44 64 0 64 C0 69.28 0 74.56 0 80 C-10.56 80 -21.12 80 -32 80 C-32 64.16 -32 48.32 -32 32 C-21.44 32 -10.88 32 0 32 C0 21.44 0 10.88 0 0 Z " fill="#BC8F7D" transform="translate(272,432)"/>
<path d="M0 0 C5.28 0 10.56 0 16 0 C16 5.28 16 10.56 16 16 C21.28 16 26.56 16 32 16 C32 21.28 32 26.56 32 32 C37.28 32 42.56 32 48 32 C48 42.56 48 53.12 48 64 C53.28 64 58.56 64 64 64 C64 69.28 64 74.56 64 80 C58.72 80 53.44 80 48 80 C48 85.28 48 90.56 48 96 C42.72 96 37.44 96 32 96 C32 90.72 32 85.44 32 80 C21.44 80 10.88 80 0 80 C0 69.44 0 58.88 0 48 C5.28 48 10.56 48 16 48 C16 42.72 16 37.44 16 32 C10.72 32 5.44 32 0 32 C0 21.44 0 10.88 0 0 Z " fill="#1F1C19" transform="translate(96,384)"/>
<path d="M0 0 C5.28 0 10.56 0 16 0 C16 5.28 16 10.56 16 16 C21.28 16 26.56 16 32 16 C32 21.28 32 26.56 32 32 C37.28 32 42.56 32 48 32 C48 37.28 48 42.56 48 48 C53.28 48 58.56 48 64 48 C64 53.28 64 58.56 64 64 C53.44 64 42.88 64 32 64 C32 69.28 32 74.56 32 80 C26.72 80 21.44 80 16 80 C16 74.72 16 69.44 16 64 C10.72 64 5.44 64 0 64 C0 74.56 0 85.12 0 96 C-5.28 96 -10.56 96 -16 96 C-16 80.16 -16 64.32 -16 48 C-5.44 48 5.12 48 16 48 C16 42.72 16 37.44 16 32 C10.72 32 5.44 32 0 32 C0 21.44 0 10.88 0 0 Z " fill="#1A1C1E" transform="translate(320,112)"/>
<path d="M0 0 C10.56 0 21.12 0 32 0 C32 5.28 32 10.56 32 16 C37.28 16 42.56 16 48 16 C48 26.56 48 37.12 48 48 C42.72 48 37.44 48 32 48 C32 53.28 32 58.56 32 64 C5.6 64 -20.8 64 -48 64 C-48 58.72 -48 53.44 -48 48 C-32.16 48 -16.32 48 0 48 C0 32.16 0 16.32 0 0 Z " fill="#191C1C" transform="translate(208,112)"/>
<path d="M0 0 C5.28 0 10.56 0 16 0 C16 5.28 16 10.56 16 16 C21.28 16 26.56 16 32 16 C32 26.56 32 37.12 32 48 C37.28 48 42.56 48 48 48 C48 53.28 48 58.56 48 64 C21.6 64 -4.8 64 -32 64 C-32 58.72 -32 53.44 -32 48 C-26.72 48 -21.44 48 -16 48 C-16 42.72 -16 37.44 -16 32 C-10.72 32 -5.44 32 0 32 C0 21.44 0 10.88 0 0 Z " fill="#32281F" transform="translate(304,448)"/>
<path d="M0 0 C10.56 0 21.12 0 32 0 C32 21.12 32 42.24 32 64 C16.16 64 0.32 64 -16 64 C-16 48.16 -16 32.32 -16 16 C-10.72 16 -5.44 16 0 16 C0 10.72 0 5.44 0 0 Z " fill="#E0C1C0" transform="translate(192,288)"/>
<path d="M0 0 C10.56 0 21.12 0 32 0 C32 5.28 32 10.56 32 16 C26.72 16 21.44 16 16 16 C16 37.12 16 58.24 16 80 C5.44 80 -5.12 80 -16 80 C-16 58.88 -16 37.76 -16 16 C-10.72 16 -5.44 16 0 16 C0 10.72 0 5.44 0 0 Z " fill="#593D2F" transform="translate(176,384)"/>
<path d="M0 0 C10.56 0 21.12 0 32 0 C32 5.28 32 10.56 32 16 C37.28 16 42.56 16 48 16 C48 31.84 48 47.68 48 64 C37.44 64 26.88 64 16 64 C16 58.72 16 53.44 16 48 C10.72 48 5.44 48 0 48 C0 32.16 0 16.32 0 0 Z " fill="#5C3F2F" transform="translate(336,304)"/>
<path d="M0 0 C10.56 0 21.12 0 32 0 C32 10.56 32 21.12 32 32 C26.72 32 21.44 32 16 32 C16 47.84 16 63.68 16 80 C10.72 80 5.44 80 0 80 C0 64.16 0 48.32 0 32 C-10.56 32 -21.12 32 -32 32 C-32 26.72 -32 21.44 -32 16 C-21.44 16 -10.88 16 0 16 C0 10.72 0 5.44 0 0 Z " fill="#4A3428" transform="translate(160,272)"/>
<path d="M0 0 C5.28 0 10.56 0 16 0 C16 36.96 16 73.92 16 112 C0.16 112 -15.68 112 -32 112 C-32 106.72 -32 101.44 -32 96 C-21.44 96 -10.88 96 0 96 C0 64.32 0 32.64 0 0 Z " fill="#000000" transform="translate(96,272)"/>
<path d="M0 0 C10.56 0 21.12 0 32 0 C32 5.28 32 10.56 32 16 C37.28 16 42.56 16 48 16 C48 21.28 48 26.56 48 32 C37.44 32 26.88 32 16 32 C16 37.28 16 42.56 16 48 C5.44 48 -5.12 48 -16 48 C-16 37.44 -16 26.88 -16 16 C-10.72 16 -5.44 16 0 16 C0 10.72 0 5.44 0 0 Z " fill="#CA9E89" transform="translate(272,272)"/>
<path d="M0 0 C26.4 0 52.8 0 80 0 C80 10.56 80 21.12 80 32 C69.44 32 58.88 32 48 32 C48 26.72 48 21.44 48 16 C37.44 16 26.88 16 16 16 C16 21.28 16 26.56 16 32 C10.72 32 5.44 32 0 32 C0 21.44 0 10.88 0 0 Z " fill="#483934" transform="translate(160,192)"/>
<path d="M0 0 C5.28 0 10.56 0 16 0 C16 31.68 16 63.36 16 96 C10.72 96 5.44 96 0 96 C0 80.16 0 64.32 0 48 C-5.28 48 -10.56 48 -16 48 C-16 37.44 -16 26.88 -16 16 C-10.72 16 -5.44 16 0 16 C0 10.72 0 5.44 0 0 Z " fill="#15110B" transform="translate(80,176)"/>
<path d="M0 0 C5.28 0 10.56 0 16 0 C16 5.28 16 10.56 16 16 C21.28 16 26.56 16 32 16 C32 21.28 32 26.56 32 32 C0.32 32 -31.36 32 -64 32 C-64 26.72 -64 21.44 -64 16 C-42.88 16 -21.76 16 0 16 C0 10.72 0 5.44 0 0 Z " fill="#5C3F2F" transform="translate(208,480)"/>
<path d="M0 0 C5.28 0 10.56 0 16 0 C16 15.84 16 31.68 16 48 C21.28 48 26.56 48 32 48 C32 58.56 32 69.12 32 80 C26.72 80 21.44 80 16 80 C16 74.72 16 69.44 16 64 C10.72 64 5.44 64 0 64 C0 53.44 0 42.88 0 32 C-5.28 32 -10.56 32 -16 32 C-16 26.72 -16 21.44 -16 16 C-10.72 16 -5.44 16 0 16 C0 10.72 0 5.44 0 0 Z " fill="#A6785D" transform="translate(224,336)"/>
<path d="M0 0 C5.28 0 10.56 0 16 0 C16 26.4 16 52.8 16 80 C21.28 80 26.56 80 32 80 C32 85.28 32 90.56 32 96 C21.44 96 10.88 96 0 96 C0 64.32 0 32.64 0 0 Z " fill="#4F3931" transform="translate(112,288)"/>
<path d="M0 0 C15.84 0 31.68 0 48 0 C48 15.84 48 31.68 48 48 C37.44 48 26.88 48 16 48 C16 37.44 16 26.88 16 16 C10.72 16 5.44 16 0 16 C0 10.72 0 5.44 0 0 Z " fill="#98684C" transform="translate(176,240)"/>
<path d="M0 0 C10.56 0 21.12 0 32 0 C32 5.28 32 10.56 32 16 C37.28 16 42.56 16 48 16 C48 26.56 48 37.12 48 48 C42.72 48 37.44 48 32 48 C32 42.72 32 37.44 32 32 C21.44 32 10.88 32 0 32 C0 21.44 0 10.88 0 0 Z " fill="#B88775" transform="translate(176,352)"/>
<path d="M0 0 C5.28 0 10.56 0 16 0 C16 21.12 16 42.24 16 64 C10.72 64 5.44 64 0 64 C0 69.28 0 74.56 0 80 C-5.28 80 -10.56 80 -16 80 C-16 69.44 -16 58.88 -16 48 C-10.72 48 -5.44 48 0 48 C0 32.16 0 16.32 0 0 Z " fill="#241F1A" transform="translate(144,192)"/>
<path d="M0 0 C5.28 0 10.56 0 16 0 C16 10.56 16 21.12 16 32 C21.28 32 26.56 32 32 32 C32 47.84 32 63.68 32 80 C26.72 80 21.44 80 16 80 C16 69.44 16 58.88 16 48 C10.72 48 5.44 48 0 48 C0 32.16 0 16.32 0 0 Z " fill="#3D404B" transform="translate(336,208)"/>
<path d="M0 0 C5.28 0 10.56 0 16 0 C16 15.84 16 31.68 16 48 C5.44 48 -5.12 48 -16 48 C-16 42.72 -16 37.44 -16 32 C-21.28 32 -26.56 32 -32 32 C-32 26.72 -32 21.44 -32 16 C-21.44 16 -10.88 16 0 16 C0 10.72 0 5.44 0 0 Z " fill="#373437" transform="translate(272,192)"/>
<path d="M0 0 C10.56 0 21.12 0 32 0 C32 5.28 32 10.56 32 16 C26.72 16 21.44 16 16 16 C16 26.56 16 37.12 16 48 C5.44 48 -5.12 48 -16 48 C-16 37.44 -16 26.88 -16 16 C-10.72 16 -5.44 16 0 16 C0 10.72 0 5.44 0 0 Z " fill="#24240C" transform="translate(112,128)"/>
<path d="M0 0 C26.4 0 52.8 0 80 0 C80 5.28 80 10.56 80 16 C53.6 16 27.2 16 0 16 C0 10.72 0 5.44 0 0 Z " fill="#1C1C14" transform="translate(400,496)"/>
<path d="M0 0 C10.56 0 21.12 0 32 0 C32 10.56 32 21.12 32 32 C16.16 32 0.32 32 -16 32 C-16 26.72 -16 21.44 -16 16 C-10.72 16 -5.44 16 0 16 C0 10.72 0 5.44 0 0 Z " fill="#18160F" transform="translate(288,480)"/>
<path d="M0 0 C10.56 0 21.12 0 32 0 C32 5.28 32 10.56 32 16 C37.28 16 42.56 16 48 16 C48 21.28 48 26.56 48 32 C32.16 32 16.32 32 0 32 C0 21.44 0 10.88 0 0 Z " fill="#3A342A" transform="translate(96,464)"/>
<path d="M0 0 C10.56 0 21.12 0 32 0 C32 10.56 32 21.12 32 32 C26.72 32 21.44 32 16 32 C16 37.28 16 42.56 16 48 C10.72 48 5.44 48 0 48 C0 32.16 0 16.32 0 0 Z " fill="#13100D" transform="translate(16,432)"/>
<path d="M0 0 C10.56 0 21.12 0 32 0 C32 5.28 32 10.56 32 16 C26.72 16 21.44 16 16 16 C16 31.84 16 47.68 16 64 C10.72 64 5.44 64 0 64 C0 42.88 0 21.76 0 0 Z " fill="#7E5641" transform="translate(176,384)"/>
<path d="M0 0 C5.28 0 10.56 0 16 0 C16 10.56 16 21.12 16 32 C-5.12 32 -26.24 32 -48 32 C-48 26.72 -48 21.44 -48 16 C-32.16 16 -16.32 16 0 16 C0 10.72 0 5.44 0 0 Z " fill="#000000" transform="translate(48,384)"/>
<path d="M0 0 C10.56 0 21.12 0 32 0 C32 21.12 32 42.24 32 64 C26.72 64 21.44 64 16 64 C16 48.16 16 32.32 16 16 C10.72 16 5.44 16 0 16 C0 10.72 0 5.44 0 0 Z " fill="#000000" transform="translate(336,368)"/>
<path d="M0 0 C5.28 0 10.56 0 16 0 C16 15.84 16 31.68 16 48 C5.44 48 -5.12 48 -16 48 C-16 37.44 -16 26.88 -16 16 C-10.72 16 -5.44 16 0 16 C0 10.72 0 5.44 0 0 Z " fill="#3C2A24" transform="translate(160,352)"/>
<path d="M0 0 C5.28 0 10.56 0 16 0 C16 10.56 16 21.12 16 32 C26.56 32 37.12 32 48 32 C48 37.28 48 42.56 48 48 C32.16 48 16.32 48 0 48 C0 32.16 0 16.32 0 0 Z " fill="#D8B3A7" transform="translate(272,352)"/>
<path d="M0 0 C5.28 0 10.56 0 16 0 C16 21.12 16 42.24 16 64 C10.72 64 5.44 64 0 64 C0 58.72 0 53.44 0 48 C-5.28 48 -10.56 48 -16 48 C-16 42.72 -16 37.44 -16 32 C-10.72 32 -5.44 32 0 32 C0 21.44 0 10.88 0 0 Z " fill="#191819" transform="translate(384,272)"/>
<path d="M0 0 C15.84 0 31.68 0 48 0 C48 5.28 48 10.56 48 16 C42.72 16 37.44 16 32 16 C32 21.28 32 26.56 32 32 C21.44 32 10.88 32 0 32 C0 21.44 0 10.88 0 0 Z " fill="#7E5641" transform="translate(224,272)"/>
<path d="M0 0 C10.56 0 21.12 0 32 0 C32 5.28 32 10.56 32 16 C42.56 16 53.12 16 64 16 C64 21.28 64 26.56 64 32 C48.16 32 32.32 32 16 32 C16 26.72 16 21.44 16 16 C10.72 16 5.44 16 0 16 C0 10.72 0 5.44 0 0 Z " fill="#241F1A" transform="translate(96,256)"/>
<path d="M0 0 C5.28 0 10.56 0 16 0 C16 5.28 16 10.56 16 16 C21.28 16 26.56 16 32 16 C32 21.28 32 26.56 32 32 C37.28 32 42.56 32 48 32 C48 37.28 48 42.56 48 48 C37.44 48 26.88 48 16 48 C16 42.72 16 37.44 16 32 C10.72 32 5.44 32 0 32 C0 21.44 0 10.88 0 0 Z " fill="#0B0C0C" transform="translate(320,112)"/>
<path d="M0 0 C10.56 0 21.12 0 32 0 C32 5.28 32 10.56 32 16 C26.72 16 21.44 16 16 16 C16 26.56 16 37.12 16 48 C10.72 48 5.44 48 0 48 C0 42.72 0 37.44 0 32 C-5.28 32 -10.56 32 -16 32 C-16 26.72 -16 21.44 -16 16 C-10.72 16 -5.44 16 0 16 C0 10.72 0 5.44 0 0 Z " fill="#323430" transform="translate(144,128)"/>
<path d="M0 0 C21.12 0 42.24 0 64 0 C64 5.28 64 10.56 64 16 C48.16 16 32.32 16 16 16 C16 21.28 16 26.56 16 32 C10.72 32 5.44 32 0 32 C0 21.44 0 10.88 0 0 Z " fill="#2C2D36" transform="translate(192,96)"/>
<path d="M0 0 C5.28 0 10.56 0 16 0 C16 10.56 16 21.12 16 32 C21.28 32 26.56 32 32 32 C32 37.28 32 42.56 32 48 C21.44 48 10.88 48 0 48 C0 32.16 0 16.32 0 0 Z " fill="#B5826E" transform="translate(240,464)"/>
<path d="M0 0 C10.56 0 21.12 0 32 0 C32 10.56 32 21.12 32 32 C21.44 32 10.88 32 0 32 C0 21.44 0 10.88 0 0 Z " fill="#C9A18E" transform="translate(256,464)"/>
<path d="M0 0 C5.28 0 10.56 0 16 0 C16 15.84 16 31.68 16 48 C5.44 48 -5.12 48 -16 48 C-16 42.72 -16 37.44 -16 32 C-10.72 32 -5.44 32 0 32 C0 21.44 0 10.88 0 0 Z " fill="#000000" transform="translate(64,464)"/>
<path d="M0 0 C5.28 0 10.56 0 16 0 C16 5.28 16 10.56 16 16 C26.56 16 37.12 16 48 16 C48 21.28 48 26.56 48 32 C32.16 32 16.32 32 0 32 C0 21.44 0 10.88 0 0 Z " fill="#000000" transform="translate(368,432)"/>
<path d="M0 0 C5.28 0 10.56 0 16 0 C16 5.28 16 10.56 16 16 C21.28 16 26.56 16 32 16 C32 21.28 32 26.56 32 32 C26.72 32 21.44 32 16 32 C16 37.28 16 42.56 16 48 C10.72 48 5.44 48 0 48 C0 32.16 0 16.32 0 0 Z " fill="#120F08" transform="translate(128,432)"/>
<path d="M0 0 C10.56 0 21.12 0 32 0 C32 10.56 32 21.12 32 32 C21.44 32 10.88 32 0 32 C0 21.44 0 10.88 0 0 Z " fill="#2C2C1C" transform="translate(96,432)"/>
<path d="M0 0 C5.28 0 10.56 0 16 0 C16 21.12 16 42.24 16 64 C10.72 64 5.44 64 0 64 C0 42.88 0 21.76 0 0 Z " fill="#1F1C17" transform="translate(48,432)"/>
<path d="M0 0 C5.28 0 10.56 0 16 0 C16 15.84 16 31.68 16 48 C5.44 48 -5.12 48 -16 48 C-16 42.72 -16 37.44 -16 32 C-10.72 32 -5.44 32 0 32 C0 21.44 0 10.88 0 0 Z " fill="#212224" transform="translate(336,384)"/>
<path d="M0 0 C10.56 0 21.12 0 32 0 C32 10.56 32 21.12 32 32 C21.44 32 10.88 32 0 32 C0 21.44 0 10.88 0 0 Z " fill="#DCBDBA" transform="translate(288,304)"/>
<path d="M0 0 C21.12 0 42.24 0 64 0 C64 5.28 64 10.56 64 16 C42.88 16 21.76 16 0 16 C0 10.72 0 5.44 0 0 Z " fill="#7E5641" transform="translate(224,256)"/>
<path d="M0 0 C5.28 0 10.56 0 16 0 C16 5.28 16 10.56 16 16 C21.28 16 26.56 16 32 16 C32 21.28 32 26.56 32 32 C16.16 32 0.32 32 -16 32 C-16 26.72 -16 21.44 -16 16 C-10.72 16 -5.44 16 0 16 C0 10.72 0 5.44 0 0 Z " fill="#684834" transform="translate(160,240)"/>
<path d="M0 0 C15.84 0 31.68 0 48 0 C48 5.28 48 10.56 48 16 C37.44 16 26.88 16 16 16 C16 21.28 16 26.56 16 32 C10.72 32 5.44 32 0 32 C0 21.44 0 10.88 0 0 Z " fill="#684834" transform="translate(160,192)"/>
<path d="M0 0 C10.56 0 21.12 0 32 0 C32 5.28 32 10.56 32 16 C26.72 16 21.44 16 16 16 C16 21.28 16 26.56 16 32 C5.44 32 -5.12 32 -16 32 C-16 26.72 -16 21.44 -16 16 C-10.72 16 -5.44 16 0 16 C0 10.72 0 5.44 0 0 Z " fill="#1D1918" transform="translate(160,96)"/>
<path d="M0 0 C5.28 0 10.56 0 16 0 C16 5.28 16 10.56 16 16 C21.28 16 26.56 16 32 16 C32 21.28 32 26.56 32 32 C21.44 32 10.88 32 0 32 C0 21.44 0 10.88 0 0 Z " fill="#684834" transform="translate(208,480)"/>
<path d="M0 0 C15.84 0 31.68 0 48 0 C48 5.28 48 10.56 48 16 C32.16 16 16.32 16 0 16 C0 10.72 0 5.44 0 0 Z " fill="#2C2C2A" transform="translate(0,496)"/>
<path d="M0 0 C15.84 0 31.68 0 48 0 C48 5.28 48 10.56 48 16 C32.16 16 16.32 16 0 16 C0 10.72 0 5.44 0 0 Z " fill="#2C2C30" transform="translate(368,464)"/>
<path d="M0 0 C5.28 0 10.56 0 16 0 C16 10.56 16 21.12 16 32 C5.44 32 -5.12 32 -16 32 C-16 26.72 -16 21.44 -16 16 C-10.72 16 -5.44 16 0 16 C0 10.72 0 5.44 0 0 Z " fill="#4A3428" transform="translate(192,464)"/>
<path d="M0 0 C10.56 0 21.12 0 32 0 C32 10.56 32 21.12 32 32 C26.72 32 21.44 32 16 32 C16 26.72 16 21.44 16 16 C10.72 16 5.44 16 0 16 C0 10.72 0 5.44 0 0 Z " fill="#A4806C" transform="translate(192,448)"/>
<path d="M0 0 C10.56 0 21.12 0 32 0 C32 10.56 32 21.12 32 32 C26.72 32 21.44 32 16 32 C16 26.72 16 21.44 16 16 C10.72 16 5.44 16 0 16 C0 10.72 0 5.44 0 0 Z " fill="#946C5C" transform="translate(224,384)"/>
<path d="M0 0 C5.28 0 10.56 0 16 0 C16 15.84 16 31.68 16 48 C10.72 48 5.44 48 0 48 C0 32.16 0 16.32 0 0 Z " fill="#2C2C2A" transform="translate(336,304)"/>
<path d="M0 0 C5.28 0 10.56 0 16 0 C16 5.28 16 10.56 16 16 C21.28 16 26.56 16 32 16 C32 21.28 32 26.56 32 32 C21.44 32 10.88 32 0 32 C0 21.44 0 10.88 0 0 Z " fill="#CCAC94" transform="translate(288,272)"/>
<path d="M0 0 C5.28 0 10.56 0 16 0 C16 10.56 16 21.12 16 32 C5.44 32 -5.12 32 -16 32 C-16 26.72 -16 21.44 -16 16 C-10.72 16 -5.44 16 0 16 C0 10.72 0 5.44 0 0 Z " fill="#B4805C" transform="translate(208,256)"/>
<path d="M0 0 C5.28 0 10.56 0 16 0 C16 15.84 16 31.68 16 48 C10.72 48 5.44 48 0 48 C0 32.16 0 16.32 0 0 Z " fill="#393C37" transform="translate(288,224)"/>
<path d="M0 0 C5.28 0 10.56 0 16 0 C16 15.84 16 31.68 16 48 C10.72 48 5.44 48 0 48 C0 32.16 0 16.32 0 0 Z " fill="#000000" transform="translate(80,224)"/>
<path d="M0 0 C5.28 0 10.56 0 16 0 C16 15.84 16 31.68 16 48 C10.72 48 5.44 48 0 48 C0 32.16 0 16.32 0 0 Z " fill="#30271F" transform="translate(144,192)"/>
<path d="M0 0 C5.28 0 10.56 0 16 0 C16 15.84 16 31.68 16 48 C10.72 48 5.44 48 0 48 C0 32.16 0 16.32 0 0 Z " fill="#241F1A" transform="translate(384,176)"/>
<path d="M0 0 C5.28 0 10.56 0 16 0 C16 15.84 16 31.68 16 48 C10.72 48 5.44 48 0 48 C0 32.16 0 16.32 0 0 Z " fill="#363D49" transform="translate(272,192)"/>
<path d="M0 0 C15.84 0 31.68 0 48 0 C48 5.28 48 10.56 48 16 C32.16 16 16.32 16 0 16 C0 10.72 0 5.44 0 0 Z " fill="#322C2B" transform="translate(176,176)"/>
<path d="M0 0 C5.28 0 10.56 0 16 0 C16 5.28 16 10.56 16 16 C21.28 16 26.56 16 32 16 C32 21.28 32 26.56 32 32 C21.44 32 10.88 32 0 32 C0 21.44 0 10.88 0 0 Z " fill="#232428" transform="translate(304,128)"/>
<path d="M0 0 C10.56 0 21.12 0 32 0 C32 5.28 32 10.56 32 16 C21.44 16 10.88 16 0 16 C0 10.72 0 5.44 0 0 Z " fill="#040404" transform="translate(368,496)"/>
<path d="M0 0 C10.56 0 21.12 0 32 0 C32 5.28 32 10.56 32 16 C21.44 16 10.88 16 0 16 C0 10.72 0 5.44 0 0 Z " fill="#2C2C2A" transform="translate(320,496)"/>
<path d="M0 0 C10.56 0 21.12 0 32 0 C32 5.28 32 10.56 32 16 C21.44 16 10.88 16 0 16 C0 10.72 0 5.44 0 0 Z " fill="#6C6C54" transform="translate(144,496)"/>
<path d="M0 0 C10.56 0 21.12 0 32 0 C32 5.28 32 10.56 32 16 C21.44 16 10.88 16 0 16 C0 10.72 0 5.44 0 0 Z " fill="#000000" transform="translate(432,480)"/>
<path d="M0 0 C10.56 0 21.12 0 32 0 C32 5.28 32 10.56 32 16 C21.44 16 10.88 16 0 16 C0 10.72 0 5.44 0 0 Z " fill="#171416" transform="translate(368,480)"/>
<path d="M0 0 C10.56 0 21.12 0 32 0 C32 5.28 32 10.56 32 16 C21.44 16 10.88 16 0 16 C0 10.72 0 5.44 0 0 Z " fill="#342A20" transform="translate(96,464)"/>
<path d="M0 0 C5.28 0 10.56 0 16 0 C16 10.56 16 21.12 16 32 C10.72 32 5.44 32 0 32 C0 21.44 0 10.88 0 0 Z " fill="#373437" transform="translate(368,432)"/>
<path d="M0 0 C5.28 0 10.56 0 16 0 C16 10.56 16 21.12 16 32 C10.72 32 5.44 32 0 32 C0 21.44 0 10.88 0 0 Z " fill="#59514C" transform="translate(352,432)"/>
<path d="M0 0 C10.56 0 21.12 0 32 0 C32 5.28 32 10.56 32 16 C21.44 16 10.88 16 0 16 C0 10.72 0 5.44 0 0 Z " fill="#946C54" transform="translate(240,448)"/>
<path d="M0 0 C5.28 0 10.56 0 16 0 C16 10.56 16 21.12 16 32 C10.72 32 5.44 32 0 32 C0 21.44 0 10.88 0 0 Z " fill="#282421" transform="translate(0,432)"/>
<path d="M0 0 C10.56 0 21.12 0 32 0 C32 5.28 32 10.56 32 16 C21.44 16 10.88 16 0 16 C0 10.72 0 5.44 0 0 Z " fill="#C9A18E" transform="translate(192,432)"/>
<path d="M0 0 C5.28 0 10.56 0 16 0 C16 10.56 16 21.12 16 32 C10.72 32 5.44 32 0 32 C0 21.44 0 10.88 0 0 Z " fill="#A6785D" transform="translate(192,400)"/>
<path d="M0 0 C5.28 0 10.56 0 16 0 C16 10.56 16 21.12 16 32 C10.72 32 5.44 32 0 32 C0 21.44 0 10.88 0 0 Z " fill="#201C1C" transform="translate(64,384)"/>
<path d="M0 0 C5.28 0 10.56 0 16 0 C16 10.56 16 21.12 16 32 C10.72 32 5.44 32 0 32 C0 21.44 0 10.88 0 0 Z " fill="#946C5C" transform="translate(176,352)"/>
<path d="M0 0 C5.28 0 10.56 0 16 0 C16 10.56 16 21.12 16 32 C10.72 32 5.44 32 0 32 C0 21.44 0 10.88 0 0 Z " fill="#684232" transform="translate(128,336)"/>
<path d="M0 0 C5.28 0 10.56 0 16 0 C16 10.56 16 21.12 16 32 C10.72 32 5.44 32 0 32 C0 21.44 0 10.88 0 0 Z " fill="#000000" transform="translate(368,336)"/>
<path d="M0 0 C5.28 0 10.56 0 16 0 C16 10.56 16 21.12 16 32 C10.72 32 5.44 32 0 32 C0 21.44 0 10.88 0 0 Z " fill="#DCAC9C" transform="translate(320,320)"/>
<path d="M0 0 C5.28 0 10.56 0 16 0 C16 10.56 16 21.12 16 32 C10.72 32 5.44 32 0 32 C0 21.44 0 10.88 0 0 Z " fill="#BC8C70" transform="translate(224,304)"/>
<path d="M0 0 C5.28 0 10.56 0 16 0 C16 10.56 16 21.12 16 32 C10.72 32 5.44 32 0 32 C0 21.44 0 10.88 0 0 Z " fill="#C9A18E" transform="translate(176,304)"/>
<path d="M0 0 C5.28 0 10.56 0 16 0 C16 10.56 16 21.12 16 32 C10.72 32 5.44 32 0 32 C0 21.44 0 10.88 0 0 Z " fill="#D2AC9C" transform="translate(272,272)"/>
<path d="M0 0 C10.56 0 21.12 0 32 0 C32 5.28 32 10.56 32 16 C21.44 16 10.88 16 0 16 C0 10.72 0 5.44 0 0 Z " fill="#D4A791" transform="translate(192,288)"/>
<path d="M0 0 C5.28 0 10.56 0 16 0 C16 10.56 16 21.12 16 32 C10.72 32 5.44 32 0 32 C0 21.44 0 10.88 0 0 Z " fill="#282C35" transform="translate(336,256)"/>
<path d="M0 0 C10.56 0 21.12 0 32 0 C32 5.28 32 10.56 32 16 C21.44 16 10.88 16 0 16 C0 10.72 0 5.44 0 0 Z " fill="#4A3428" transform="translate(240,272)"/>
<path d="M0 0 C10.56 0 21.12 0 32 0 C32 5.28 32 10.56 32 16 C21.44 16 10.88 16 0 16 C0 10.72 0 5.44 0 0 Z " fill="#3C2A24" transform="translate(160,272)"/>
<path d="M0 0 C10.56 0 21.12 0 32 0 C32 5.28 32 10.56 32 16 C21.44 16 10.88 16 0 16 C0 10.72 0 5.44 0 0 Z " fill="#1C1C14" transform="translate(96,256)"/>
<path d="M0 0 C5.28 0 10.56 0 16 0 C16 10.56 16 21.12 16 32 C10.72 32 5.44 32 0 32 C0 21.44 0 10.88 0 0 Z " fill="#6C4E40" transform="translate(224,224)"/>
<path d="M0 0 C5.28 0 10.56 0 16 0 C16 10.56 16 21.12 16 32 C10.72 32 5.44 32 0 32 C0 21.44 0 10.88 0 0 Z " fill="#302C2B" transform="translate(288,192)"/>
<path d="M0 0 C5.28 0 10.56 0 16 0 C16 10.56 16 21.12 16 32 C10.72 32 5.44 32 0 32 C0 21.44 0 10.88 0 0 Z " fill="#583C2F" transform="translate(208,192)"/>
<path d="M0 0 C10.56 0 21.12 0 32 0 C32 5.28 32 10.56 32 16 C21.44 16 10.88 16 0 16 C0 10.72 0 5.44 0 0 Z " fill="#684834" transform="translate(176,192)"/>
<path d="M0 0 C5.28 0 10.56 0 16 0 C16 10.56 16 21.12 16 32 C10.72 32 5.44 32 0 32 C0 21.44 0 10.88 0 0 Z " fill="#000000" transform="translate(64,192)"/>
<path d="M0 0 C10.56 0 21.12 0 32 0 C32 5.28 32 10.56 32 16 C21.44 16 10.88 16 0 16 C0 10.72 0 5.44 0 0 Z " fill="#352C2C" transform="translate(352,176)"/>
<path d="M0 0 C5.28 0 10.56 0 16 0 C16 10.56 16 21.12 16 32 C10.72 32 5.44 32 0 32 C0 21.44 0 10.88 0 0 Z " fill="#282C35" transform="translate(272,160)"/>
<path d="M0 0 C5.28 0 10.56 0 16 0 C16 10.56 16 21.12 16 32 C10.72 32 5.44 32 0 32 C0 21.44 0 10.88 0 0 Z " fill="#000000" transform="translate(96,144)"/>
<path d="M0 0 C5.28 0 10.56 0 16 0 C16 10.56 16 21.12 16 32 C10.72 32 5.44 32 0 32 C0 21.44 0 10.88 0 0 Z " fill="#1C1C14" transform="translate(320,112)"/>
<path d="M0 0 C10.56 0 21.12 0 32 0 C32 5.28 32 10.56 32 16 C21.44 16 10.88 16 0 16 C0 10.72 0 5.44 0 0 Z " fill="#000000" transform="translate(112,128)"/>
<path d="M0 0 C10.56 0 21.12 0 32 0 C32 5.28 32 10.56 32 16 C21.44 16 10.88 16 0 16 C0 10.72 0 5.44 0 0 Z " fill="#232428" transform="translate(240,112)"/>
<path d="M0 0 C10.56 0 21.12 0 32 0 C32 5.28 32 10.56 32 16 C21.44 16 10.88 16 0 16 C0 10.72 0 5.44 0 0 Z " fill="#363D49" transform="translate(224,96)"/>
<path d="M0 0 C5.28 0 10.56 0 16 0 C16 5.28 16 10.56 16 16 C10.72 16 5.44 16 0 16 C0 10.72 0 5.44 0 0 Z " fill="#000000" transform="translate(464,496)"/>
<path d="M0 0 C5.28 0 10.56 0 16 0 C16 5.28 16 10.56 16 16 C10.72 16 5.44 16 0 16 C0 10.72 0 5.44 0 0 Z " fill="#4D4040" transform="translate(448,496)"/>
<path d="M0 0 C5.28 0 10.56 0 16 0 C16 5.28 16 10.56 16 16 C10.72 16 5.44 16 0 16 C0 10.72 0 5.44 0 0 Z " fill="#2C241E" transform="translate(432,496)"/>
<path d="M0 0 C5.28 0 10.56 0 16 0 C16 5.28 16 10.56 16 16 C10.72 16 5.44 16 0 16 C0 10.72 0 5.44 0 0 Z " fill="#0B0C0C" transform="translate(368,496)"/>
<path d="M0 0 C5.28 0 10.56 0 16 0 C16 5.28 16 10.56 16 16 C10.72 16 5.44 16 0 16 C0 10.72 0 5.44 0 0 Z " fill="#373437" transform="translate(320,496)"/>
<path d="M0 0 C5.28 0 10.56 0 16 0 C16 5.28 16 10.56 16 16 C10.72 16 5.44 16 0 16 C0 10.72 0 5.44 0 0 Z " fill="#2C241E" transform="translate(304,496)"/>
<path d="M0 0 C5.28 0 10.56 0 16 0 C16 5.28 16 10.56 16 16 C10.72 16 5.44 16 0 16 C0 10.72 0 5.44 0 0 Z " fill="#AF907D" transform="translate(256,496)"/>
<path d="M0 0 C5.28 0 10.56 0 16 0 C16 5.28 16 10.56 16 16 C10.72 16 5.44 16 0 16 C0 10.72 0 5.44 0 0 Z " fill="#A4806C" transform="translate(240,496)"/>
<path d="M0 0 C5.28 0 10.56 0 16 0 C16 5.28 16 10.56 16 16 C10.72 16 5.44 16 0 16 C0 10.72 0 5.44 0 0 Z " fill="#7E5641" transform="translate(224,496)"/>
<path d="M0 0 C5.28 0 10.56 0 16 0 C16 5.28 16 10.56 16 16 C10.72 16 5.44 16 0 16 C0 10.72 0 5.44 0 0 Z " fill="#684834" transform="translate(176,496)"/>
<path d="M0 0 C5.28 0 10.56 0 16 0 C16 5.28 16 10.56 16 16 C10.72 16 5.44 16 0 16 C0 10.72 0 5.44 0 0 Z " fill="#64544C" transform="translate(144,496)"/>
<path d="M0 0 C5.28 0 10.56 0 16 0 C16 5.28 16 10.56 16 16 C10.72 16 5.44 16 0 16 C0 10.72 0 5.44 0 0 Z " fill="#1C1C14" transform="translate(128,496)"/>
<path d="M0 0 C5.28 0 10.56 0 16 0 C16 5.28 16 10.56 16 16 C10.72 16 5.44 16 0 16 C0 10.72 0 5.44 0 0 Z " fill="#000000" transform="translate(112,496)"/>
<path d="M0 0 C5.28 0 10.56 0 16 0 C16 5.28 16 10.56 16 16 C10.72 16 5.44 16 0 16 C0 10.72 0 5.44 0 0 Z " fill="#0C0C04" transform="translate(48,496)"/>
<path d="M0 0 C5.28 0 10.56 0 16 0 C16 5.28 16 10.56 16 16 C10.72 16 5.44 16 0 16 C0 10.72 0 5.44 0 0 Z " fill="#342A20" transform="translate(32,496)"/>
<path d="M0 0 C5.28 0 10.56 0 16 0 C16 5.28 16 10.56 16 16 C10.72 16 5.44 16 0 16 C0 10.72 0 5.44 0 0 Z " fill="#0B0C0C" transform="translate(400,480)"/>
<path d="M0 0 C5.28 0 10.56 0 16 0 C16 5.28 16 10.56 16 16 C10.72 16 5.44 16 0 16 C0 10.72 0 5.44 0 0 Z " fill="#1C1C1C" transform="translate(368,480)"/>
<path d="M0 0 C5.28 0 10.56 0 16 0 C16 5.28 16 10.56 16 16 C10.72 16 5.44 16 0 16 C0 10.72 0 5.44 0 0 Z " fill="#59514C" transform="translate(336,480)"/>
<path d="M0 0 C5.28 0 10.56 0 16 0 C16 5.28 16 10.56 16 16 C10.72 16 5.44 16 0 16 C0 10.72 0 5.44 0 0 Z " fill="#0C0C04" transform="translate(304,480)"/>
<path d="M0 0 C5.28 0 10.56 0 16 0 C16 5.28 16 10.56 16 16 C10.72 16 5.44 16 0 16 C0 10.72 0 5.44 0 0 Z " fill="#3A342A" transform="translate(288,480)"/>
<path d="M0 0 C5.28 0 10.56 0 16 0 C16 5.28 16 10.56 16 16 C10.72 16 5.44 16 0 16 C0 10.72 0 5.44 0 0 Z " fill="#BC9680" transform="translate(272,480)"/>
<path d="M0 0 C5.28 0 10.56 0 16 0 C16 5.28 16 10.56 16 16 C10.72 16 5.44 16 0 16 C0 10.72 0 5.44 0 0 Z " fill="#6C4E40" transform="translate(208,480)"/>
<path d="M0 0 C5.28 0 10.56 0 16 0 C16 5.28 16 10.56 16 16 C10.72 16 5.44 16 0 16 C0 10.72 0 5.44 0 0 Z " fill="#4C3C1C" transform="translate(176,480)"/>
<path d="M0 0 C5.28 0 10.56 0 16 0 C16 5.28 16 10.56 16 16 C10.72 16 5.44 16 0 16 C0 10.72 0 5.44 0 0 Z " fill="#1C1C14" transform="translate(144,480)"/>
<path d="M0 0 C5.28 0 10.56 0 16 0 C16 5.28 16 10.56 16 16 C10.72 16 5.44 16 0 16 C0 10.72 0 5.44 0 0 Z " fill="#2C2C1C" transform="translate(128,480)"/>
<path d="M0 0 C5.28 0 10.56 0 16 0 C16 5.28 16 10.56 16 16 C10.72 16 5.44 16 0 16 C0 10.72 0 5.44 0 0 Z " fill="#2C2C1C" transform="translate(96,480)"/>
<path d="M0 0 C5.28 0 10.56 0 16 0 C16 5.28 16 10.56 16 16 C10.72 16 5.44 16 0 16 C0 10.72 0 5.44 0 0 Z " fill="#0C0C04" transform="translate(80,480)"/>
<path d="M0 0 C5.28 0 10.56 0 16 0 C16 5.28 16 10.56 16 16 C10.72 16 5.44 16 0 16 C0 10.72 0 5.44 0 0 Z " fill="#000000" transform="translate(416,464)"/>
<path d="M0 0 C5.28 0 10.56 0 16 0 C16 5.28 16 10.56 16 16 C10.72 16 5.44 16 0 16 C0 10.72 0 5.44 0 0 Z " fill="#44444E" transform="translate(400,464)"/>
<path d="M0 0 C5.28 0 10.56 0 16 0 C16 5.28 16 10.56 16 16 C10.72 16 5.44 16 0 16 C0 10.72 0 5.44 0 0 Z " fill="#3A342A" transform="translate(352,464)"/>
<path d="M0 0 C5.28 0 10.56 0 16 0 C16 5.28 16 10.56 16 16 C10.72 16 5.44 16 0 16 C0 10.72 0 5.44 0 0 Z " fill="#AF907D" transform="translate(288,464)"/>
<path d="M0 0 C5.28 0 10.56 0 16 0 C16 5.28 16 10.56 16 16 C10.72 16 5.44 16 0 16 C0 10.72 0 5.44 0 0 Z " fill="#CC9C84" transform="translate(256,464)"/>
<path d="M0 0 C5.28 0 10.56 0 16 0 C16 5.28 16 10.56 16 16 C10.72 16 5.44 16 0 16 C0 10.72 0 5.44 0 0 Z " fill="#BC8C70" transform="translate(240,464)"/>
<path d="M0 0 C5.28 0 10.56 0 16 0 C16 5.28 16 10.56 16 16 C10.72 16 5.44 16 0 16 C0 10.72 0 5.44 0 0 Z " fill="#946C54" transform="translate(208,464)"/>
<path d="M0 0 C5.28 0 10.56 0 16 0 C16 5.28 16 10.56 16 16 C10.72 16 5.44 16 0 16 C0 10.72 0 5.44 0 0 Z " fill="#4C4434" transform="translate(96,464)"/>
<path d="M0 0 C5.28 0 10.56 0 16 0 C16 5.28 16 10.56 16 16 C10.72 16 5.44 16 0 16 C0 10.72 0 5.44 0 0 Z " fill="#2C241E" transform="translate(80,464)"/>
<path d="M0 0 C5.28 0 10.56 0 16 0 C16 5.28 16 10.56 16 16 C10.72 16 5.44 16 0 16 C0 10.72 0 5.44 0 0 Z " fill="#2C241E" transform="translate(32,464)"/>
<path d="M0 0 C5.28 0 10.56 0 16 0 C16 5.28 16 10.56 16 16 C10.72 16 5.44 16 0 16 C0 10.72 0 5.44 0 0 Z " fill="#0C0C04" transform="translate(320,448)"/>
<path d="M0 0 C5.28 0 10.56 0 16 0 C16 5.28 16 10.56 16 16 C10.72 16 5.44 16 0 16 C0 10.72 0 5.44 0 0 Z " fill="#CCAC94" transform="translate(288,448)"/>
<path d="M0 0 C5.28 0 10.56 0 16 0 C16 5.28 16 10.56 16 16 C10.72 16 5.44 16 0 16 C0 10.72 0 5.44 0 0 Z " fill="#7C644C" transform="translate(240,448)"/>
<path d="M0 0 C5.28 0 10.56 0 16 0 C16 5.28 16 10.56 16 16 C10.72 16 5.44 16 0 16 C0 10.72 0 5.44 0 0 Z " fill="#AF907D" transform="translate(224,448)"/>
<path d="M0 0 C5.28 0 10.56 0 16 0 C16 5.28 16 10.56 16 16 C10.72 16 5.44 16 0 16 C0 10.72 0 5.44 0 0 Z " fill="#7C644C" transform="translate(192,448)"/>
<path d="M0 0 C5.28 0 10.56 0 16 0 C16 5.28 16 10.56 16 16 C10.72 16 5.44 16 0 16 C0 10.72 0 5.44 0 0 Z " fill="#5C3F2F" transform="translate(176,448)"/>
<path d="M0 0 C5.28 0 10.56 0 16 0 C16 5.28 16 10.56 16 16 C10.72 16 5.44 16 0 16 C0 10.72 0 5.44 0 0 Z " fill="#442C24" transform="translate(160,448)"/>
<path d="M0 0 C5.28 0 10.56 0 16 0 C16 5.28 16 10.56 16 16 C10.72 16 5.44 16 0 16 C0 10.72 0 5.44 0 0 Z " fill="#241F1A" transform="translate(112,448)"/>
<path d="M0 0 C5.28 0 10.56 0 16 0 C16 5.28 16 10.56 16 16 C10.72 16 5.44 16 0 16 C0 10.72 0 5.44 0 0 Z " fill="#000000" transform="translate(368,432)"/>
<path d="M0 0 C5.28 0 10.56 0 16 0 C16 5.28 16 10.56 16 16 C10.72 16 5.44 16 0 16 C0 10.72 0 5.44 0 0 Z " fill="#6C645C" transform="translate(352,432)"/>
<path d="M0 0 C5.28 0 10.56 0 16 0 C16 5.28 16 10.56 16 16 C10.72 16 5.44 16 0 16 C0 10.72 0 5.44 0 0 Z " fill="#140404" transform="translate(304,432)"/>
<path d="M0 0 C5.28 0 10.56 0 16 0 C16 5.28 16 10.56 16 16 C10.72 16 5.44 16 0 16 C0 10.72 0 5.44 0 0 Z " fill="#D2AC9C" transform="translate(224,432)"/>
<path d="M0 0 C5.28 0 10.56 0 16 0 C16 5.28 16 10.56 16 16 C10.72 16 5.44 16 0 16 C0 10.72 0 5.44 0 0 Z " fill="#BC9680" transform="translate(192,432)"/>
<path d="M0 0 C5.28 0 10.56 0 16 0 C16 5.28 16 10.56 16 16 C10.72 16 5.44 16 0 16 C0 10.72 0 5.44 0 0 Z " fill="#341C1C" transform="translate(144,432)"/>
<path d="M0 0 C5.28 0 10.56 0 16 0 C16 5.28 16 10.56 16 16 C10.72 16 5.44 16 0 16 C0 10.72 0 5.44 0 0 Z " fill="#15110B" transform="translate(128,432)"/>
<path d="M0 0 C5.28 0 10.56 0 16 0 C16 5.28 16 10.56 16 16 C10.72 16 5.44 16 0 16 C0 10.72 0 5.44 0 0 Z " fill="#2C241E" transform="translate(112,432)"/>
<path d="M0 0 C5.28 0 10.56 0 16 0 C16 5.28 16 10.56 16 16 C10.72 16 5.44 16 0 16 C0 10.72 0 5.44 0 0 Z " fill="#3C2A24" transform="translate(96,432)"/>
<path d="M0 0 C5.28 0 10.56 0 16 0 C16 5.28 16 10.56 16 16 C10.72 16 5.44 16 0 16 C0 10.72 0 5.44 0 0 Z " fill="#C9A18E" transform="translate(224,416)"/>
<path d="M0 0 C5.28 0 10.56 0 16 0 C16 5.28 16 10.56 16 16 C10.72 16 5.44 16 0 16 C0 10.72 0 5.44 0 0 Z " fill="#4A3428" transform="translate(144,416)"/>
<path d="M0 0 C5.28 0 10.56 0 16 0 C16 5.28 16 10.56 16 16 C10.72 16 5.44 16 0 16 C0 10.72 0 5.44 0 0 Z " fill="#2C241E" transform="translate(128,416)"/>
<path d="M0 0 C5.28 0 10.56 0 16 0 C16 5.28 16 10.56 16 16 C10.72 16 5.44 16 0 16 C0 10.72 0 5.44 0 0 Z " fill="#0B0C0C" transform="translate(96,416)"/>
<path d="M0 0 C5.28 0 10.56 0 16 0 C16 5.28 16 10.56 16 16 C10.72 16 5.44 16 0 16 C0 10.72 0 5.44 0 0 Z " fill="#241F1A" transform="translate(0,416)"/>
<path d="M0 0 C5.28 0 10.56 0 16 0 C16 5.28 16 10.56 16 16 C10.72 16 5.44 16 0 16 C0 10.72 0 5.44 0 0 Z " fill="#C9A18E" transform="translate(320,400)"/>
<path d="M0 0 C5.28 0 10.56 0 16 0 C16 5.28 16 10.56 16 16 C10.72 16 5.44 16 0 16 C0 10.72 0 5.44 0 0 Z " fill="#9C6C4C" transform="translate(240,400)"/>
<path d="M0 0 C5.28 0 10.56 0 16 0 C16 5.28 16 10.56 16 16 C10.72 16 5.44 16 0 16 C0 10.72 0 5.44 0 0 Z " fill="#BC8C7C" transform="translate(224,400)"/>
<path d="M0 0 C5.28 0 10.56 0 16 0 C16 5.28 16 10.56 16 16 C10.72 16 5.44 16 0 16 C0 10.72 0 5.44 0 0 Z " fill="#C9A18E" transform="translate(208,400)"/>
<path d="M0 0 C5.28 0 10.56 0 16 0 C16 5.28 16 10.56 16 16 C10.72 16 5.44 16 0 16 C0 10.72 0 5.44 0 0 Z " fill="#B5826E" transform="translate(192,400)"/>
<path d="M0 0 C5.28 0 10.56 0 16 0 C16 5.28 16 10.56 16 16 C10.72 16 5.44 16 0 16 C0 10.72 0 5.44 0 0 Z " fill="#2C2D36" transform="translate(336,384)"/>
<path d="M0 0 C5.28 0 10.56 0 16 0 C16 5.28 16 10.56 16 16 C10.72 16 5.44 16 0 16 C0 10.72 0 5.44 0 0 Z " fill="#DCAC9C" transform="translate(272,384)"/>
<path d="M0 0 C5.28 0 10.56 0 16 0 C16 5.28 16 10.56 16 16 C10.72 16 5.44 16 0 16 C0 10.72 0 5.44 0 0 Z " fill="#7E5641" transform="translate(224,384)"/>
<path d="M0 0 C5.28 0 10.56 0 16 0 C16 5.28 16 10.56 16 16 C10.72 16 5.44 16 0 16 C0 10.72 0 5.44 0 0 Z " fill="#B5826E" transform="translate(208,384)"/>
<path d="M0 0 C5.28 0 10.56 0 16 0 C16 5.28 16 10.56 16 16 C10.72 16 5.44 16 0 16 C0 10.72 0 5.44 0 0 Z " fill="#8C5C4C" transform="translate(192,384)"/>
<path d="M0 0 C5.28 0 10.56 0 16 0 C16 5.28 16 10.56 16 16 C10.72 16 5.44 16 0 16 C0 10.72 0 5.44 0 0 Z " fill="#683C30" transform="translate(176,384)"/>
<path d="M0 0 C5.28 0 10.56 0 16 0 C16 5.28 16 10.56 16 16 C10.72 16 5.44 16 0 16 C0 10.72 0 5.44 0 0 Z " fill="#341C1C" transform="translate(160,384)"/>
<path d="M0 0 C5.28 0 10.56 0 16 0 C16 5.28 16 10.56 16 16 C10.72 16 5.44 16 0 16 C0 10.72 0 5.44 0 0 Z " fill="#3C2414" transform="translate(144,384)"/>
<path d="M0 0 C5.28 0 10.56 0 16 0 C16 5.28 16 10.56 16 16 C10.72 16 5.44 16 0 16 C0 10.72 0 5.44 0 0 Z " fill="#352C2C" transform="translate(112,384)"/>
<path d="M0 0 C5.28 0 10.56 0 16 0 C16 5.28 16 10.56 16 16 C10.72 16 5.44 16 0 16 C0 10.72 0 5.44 0 0 Z " fill="#2C241E" transform="translate(64,384)"/>
<path d="M0 0 C5.28 0 10.56 0 16 0 C16 5.28 16 10.56 16 16 C10.72 16 5.44 16 0 16 C0 10.72 0 5.44 0 0 Z " fill="#241409" transform="translate(336,368)"/>
<path d="M0 0 C5.28 0 10.56 0 16 0 C16 5.28 16 10.56 16 16 C10.72 16 5.44 16 0 16 C0 10.72 0 5.44 0 0 Z " fill="#A4806C" transform="translate(224,368)"/>
<path d="M0 0 C5.28 0 10.56 0 16 0 C16 5.28 16 10.56 16 16 C10.72 16 5.44 16 0 16 C0 10.72 0 5.44 0 0 Z " fill="#543A30" transform="translate(128,368)"/>
<path d="M0 0 C5.28 0 10.56 0 16 0 C16 5.28 16 10.56 16 16 C10.72 16 5.44 16 0 16 C0 10.72 0 5.44 0 0 Z " fill="#4D4040" transform="translate(352,352)"/>
<path d="M0 0 C5.28 0 10.56 0 16 0 C16 5.28 16 10.56 16 16 C10.72 16 5.44 16 0 16 C0 10.72 0 5.44 0 0 Z " fill="#CC948C" transform="translate(192,352)"/>
<path d="M0 0 C5.28 0 10.56 0 16 0 C16 5.28 16 10.56 16 16 C10.72 16 5.44 16 0 16 C0 10.72 0 5.44 0 0 Z " fill="#A6785D" transform="translate(176,352)"/>
<path d="M0 0 C5.28 0 10.56 0 16 0 C16 5.28 16 10.56 16 16 C10.72 16 5.44 16 0 16 C0 10.72 0 5.44 0 0 Z " fill="#341C1C" transform="translate(160,352)"/>
<path d="M0 0 C5.28 0 10.56 0 16 0 C16 5.28 16 10.56 16 16 C10.72 16 5.44 16 0 16 C0 10.72 0 5.44 0 0 Z " fill="#C9A18E" transform="translate(352,336)"/>
<path d="M0 0 C5.28 0 10.56 0 16 0 C16 5.28 16 10.56 16 16 C10.72 16 5.44 16 0 16 C0 10.72 0 5.44 0 0 Z " fill="#64544C" transform="translate(336,336)"/>
<path d="M0 0 C5.28 0 10.56 0 16 0 C16 5.28 16 10.56 16 16 C10.72 16 5.44 16 0 16 C0 10.72 0 5.44 0 0 Z " fill="#C9A18E" transform="translate(256,336)"/>
<path d="M0 0 C5.28 0 10.56 0 16 0 C16 5.28 16 10.56 16 16 C10.72 16 5.44 16 0 16 C0 10.72 0 5.44 0 0 Z " fill="#BC8C7C" transform="translate(240,336)"/>
<path d="M0 0 C5.28 0 10.56 0 16 0 C16 5.28 16 10.56 16 16 C10.72 16 5.44 16 0 16 C0 10.72 0 5.44 0 0 Z " fill="#D8B3A7" transform="translate(208,336)"/>
<path d="M0 0 C5.28 0 10.56 0 16 0 C16 5.28 16 10.56 16 16 C10.72 16 5.44 16 0 16 C0 10.72 0 5.44 0 0 Z " fill="#D2AC9C" transform="translate(176,336)"/>
<path d="M0 0 C5.28 0 10.56 0 16 0 C16 5.28 16 10.56 16 16 C10.72 16 5.44 16 0 16 C0 10.72 0 5.44 0 0 Z " fill="#000000" transform="translate(384,320)"/>
<path d="M0 0 C5.28 0 10.56 0 16 0 C16 5.28 16 10.56 16 16 C10.72 16 5.44 16 0 16 C0 10.72 0 5.44 0 0 Z " fill="#393C37" transform="translate(368,320)"/>
<path d="M0 0 C5.28 0 10.56 0 16 0 C16 5.28 16 10.56 16 16 C10.72 16 5.44 16 0 16 C0 10.72 0 5.44 0 0 Z " fill="#BC9680" transform="translate(320,320)"/>
<path d="M0 0 C5.28 0 10.56 0 16 0 C16 5.28 16 10.56 16 16 C10.72 16 5.44 16 0 16 C0 10.72 0 5.44 0 0 Z " fill="#DCAC9C" transform="translate(272,320)"/>
<path d="M0 0 C5.28 0 10.56 0 16 0 C16 5.28 16 10.56 16 16 C10.72 16 5.44 16 0 16 C0 10.72 0 5.44 0 0 Z " fill="#BC8C70" transform="translate(256,320)"/>
<path d="M0 0 C5.28 0 10.56 0 16 0 C16 5.28 16 10.56 16 16 C10.72 16 5.44 16 0 16 C0 10.72 0 5.44 0 0 Z " fill="#3C2A24" transform="translate(160,320)"/>
<path d="M0 0 C5.28 0 10.56 0 16 0 C16 5.28 16 10.56 16 16 C10.72 16 5.44 16 0 16 C0 10.72 0 5.44 0 0 Z " fill="#22242C" transform="translate(368,304)"/>
<path d="M0 0 C5.28 0 10.56 0 16 0 C16 5.28 16 10.56 16 16 C10.72 16 5.44 16 0 16 C0 10.72 0 5.44 0 0 Z " fill="#59514C" transform="translate(352,304)"/>
<path d="M0 0 C5.28 0 10.56 0 16 0 C16 5.28 16 10.56 16 16 C10.72 16 5.44 16 0 16 C0 10.72 0 5.44 0 0 Z " fill="#242C34" transform="translate(336,304)"/>
<path d="M0 0 C5.28 0 10.56 0 16 0 C16 5.28 16 10.56 16 16 C10.72 16 5.44 16 0 16 C0 10.72 0 5.44 0 0 Z " fill="#3A342A" transform="translate(320,304)"/>
<path d="M0 0 C5.28 0 10.56 0 16 0 C16 5.28 16 10.56 16 16 C10.72 16 5.44 16 0 16 C0 10.72 0 5.44 0 0 Z " fill="#DFBCAA" transform="translate(288,304)"/>
<path d="M0 0 C5.28 0 10.56 0 16 0 C16 5.28 16 10.56 16 16 C10.72 16 5.44 16 0 16 C0 10.72 0 5.44 0 0 Z " fill="#A6785D" transform="translate(240,304)"/>
<path d="M0 0 C5.28 0 10.56 0 16 0 C16 5.28 16 10.56 16 16 C10.72 16 5.44 16 0 16 C0 10.72 0 5.44 0 0 Z " fill="#B5826E" transform="translate(224,304)"/>
<path d="M0 0 C5.28 0 10.56 0 16 0 C16 5.28 16 10.56 16 16 C10.72 16 5.44 16 0 16 C0 10.72 0 5.44 0 0 Z " fill="#A4806C" transform="translate(176,304)"/>
<path d="M0 0 C5.28 0 10.56 0 16 0 C16 5.28 16 10.56 16 16 C10.72 16 5.44 16 0 16 C0 10.72 0 5.44 0 0 Z " fill="#393C37" transform="translate(352,288)"/>
<path d="M0 0 C5.28 0 10.56 0 16 0 C16 5.28 16 10.56 16 16 C10.72 16 5.44 16 0 16 C0 10.72 0 5.44 0 0 Z " fill="#A4806C" transform="translate(304,288)"/>
<path d="M0 0 C5.28 0 10.56 0 16 0 C16 5.28 16 10.56 16 16 C10.72 16 5.44 16 0 16 C0 10.72 0 5.44 0 0 Z " fill="#C9A18E" transform="translate(256,288)"/>
<path d="M0 0 C5.28 0 10.56 0 16 0 C16 5.28 16 10.56 16 16 C10.72 16 5.44 16 0 16 C0 10.72 0 5.44 0 0 Z " fill="#DCAC9C" transform="translate(192,288)"/>
<path d="M0 0 C5.28 0 10.56 0 16 0 C16 5.28 16 10.56 16 16 C10.72 16 5.44 16 0 16 C0 10.72 0 5.44 0 0 Z " fill="#483934" transform="translate(112,288)"/>
<path d="M0 0 C5.28 0 10.56 0 16 0 C16 5.28 16 10.56 16 16 C10.72 16 5.44 16 0 16 C0 10.72 0 5.44 0 0 Z " fill="#1C1C1C" transform="translate(384,272)"/>
<path d="M0 0 C5.28 0 10.56 0 16 0 C16 5.28 16 10.56 16 16 C10.72 16 5.44 16 0 16 C0 10.72 0 5.44 0 0 Z " fill="#4A3428" transform="translate(304,272)"/>
<path d="M0 0 C5.28 0 10.56 0 16 0 C16 5.28 16 10.56 16 16 C10.72 16 5.44 16 0 16 C0 10.72 0 5.44 0 0 Z " fill="#B5826E" transform="translate(288,272)"/>
<path d="M0 0 C5.28 0 10.56 0 16 0 C16 5.28 16 10.56 16 16 C10.72 16 5.44 16 0 16 C0 10.72 0 5.44 0 0 Z " fill="#D8B3A7" transform="translate(272,272)"/>
<path d="M0 0 C5.28 0 10.56 0 16 0 C16 5.28 16 10.56 16 16 C10.72 16 5.44 16 0 16 C0 10.72 0 5.44 0 0 Z " fill="#2C1C0C" transform="translate(240,272)"/>
<path d="M0 0 C5.28 0 10.56 0 16 0 C16 5.28 16 10.56 16 16 C10.72 16 5.44 16 0 16 C0 10.72 0 5.44 0 0 Z " fill="#684834" transform="translate(224,272)"/>
<path d="M0 0 C5.28 0 10.56 0 16 0 C16 5.28 16 10.56 16 16 C10.72 16 5.44 16 0 16 C0 10.72 0 5.44 0 0 Z " fill="#BC8C70" transform="translate(192,272)"/>
<path d="M0 0 C5.28 0 10.56 0 16 0 C16 5.28 16 10.56 16 16 C10.72 16 5.44 16 0 16 C0 10.72 0 5.44 0 0 Z " fill="#3C2414" transform="translate(160,272)"/>
<path d="M0 0 C5.28 0 10.56 0 16 0 C16 5.28 16 10.56 16 16 C10.72 16 5.44 16 0 16 C0 10.72 0 5.44 0 0 Z " fill="#171416" transform="translate(144,272)"/>
<path d="M0 0 C5.28 0 10.56 0 16 0 C16 5.28 16 10.56 16 16 C10.72 16 5.44 16 0 16 C0 10.72 0 5.44 0 0 Z " fill="#2C241E" transform="translate(112,272)"/>
<path d="M0 0 C5.28 0 10.56 0 16 0 C16 5.28 16 10.56 16 16 C10.72 16 5.44 16 0 16 C0 10.72 0 5.44 0 0 Z " fill="#483934" transform="translate(288,256)"/>
<path d="M0 0 C5.28 0 10.56 0 16 0 C16 5.28 16 10.56 16 16 C10.72 16 5.44 16 0 16 C0 10.72 0 5.44 0 0 Z " fill="#7E5641" transform="translate(272,256)"/>
<path d="M0 0 C5.28 0 10.56 0 16 0 C16 5.28 16 10.56 16 16 C10.72 16 5.44 16 0 16 C0 10.72 0 5.44 0 0 Z " fill="#94644C" transform="translate(256,256)"/>
<path d="M0 0 C5.28 0 10.56 0 16 0 C16 5.28 16 10.56 16 16 C10.72 16 5.44 16 0 16 C0 10.72 0 5.44 0 0 Z " fill="#8C5C4C" transform="translate(224,256)"/>
<path d="M0 0 C5.28 0 10.56 0 16 0 C16 5.28 16 10.56 16 16 C10.72 16 5.44 16 0 16 C0 10.72 0 5.44 0 0 Z " fill="#6C4E40" transform="translate(144,256)"/>
<path d="M0 0 C5.28 0 10.56 0 16 0 C16 5.28 16 10.56 16 16 C10.72 16 5.44 16 0 16 C0 10.72 0 5.44 0 0 Z " fill="#352C2C" transform="translate(128,256)"/>
<path d="M0 0 C5.28 0 10.56 0 16 0 C16 5.28 16 10.56 16 16 C10.72 16 5.44 16 0 16 C0 10.72 0 5.44 0 0 Z " fill="#15110B" transform="translate(96,256)"/>
<path d="M0 0 C5.28 0 10.56 0 16 0 C16 5.28 16 10.56 16 16 C10.72 16 5.44 16 0 16 C0 10.72 0 5.44 0 0 Z " fill="#3C4C5C" transform="translate(352,240)"/>
<path d="M0 0 C5.28 0 10.56 0 16 0 C16 5.28 16 10.56 16 16 C10.72 16 5.44 16 0 16 C0 10.72 0 5.44 0 0 Z " fill="#373437" transform="translate(320,240)"/>
<path d="M0 0 C5.28 0 10.56 0 16 0 C16 5.28 16 10.56 16 16 C10.72 16 5.44 16 0 16 C0 10.72 0 5.44 0 0 Z " fill="#5C3F2F" transform="translate(160,240)"/>
<path d="M0 0 C5.28 0 10.56 0 16 0 C16 5.28 16 10.56 16 16 C10.72 16 5.44 16 0 16 C0 10.72 0 5.44 0 0 Z " fill="#2C2C2A" transform="translate(96,240)"/>
<path d="M0 0 C5.28 0 10.56 0 16 0 C16 5.28 16 10.56 16 16 C10.72 16 5.44 16 0 16 C0 10.72 0 5.44 0 0 Z " fill="#363D49" transform="translate(368,224)"/>
<path d="M0 0 C5.28 0 10.56 0 16 0 C16 5.28 16 10.56 16 16 C10.72 16 5.44 16 0 16 C0 10.72 0 5.44 0 0 Z " fill="#242C34" transform="translate(352,224)"/>
<path d="M0 0 C5.28 0 10.56 0 16 0 C16 5.28 16 10.56 16 16 C10.72 16 5.44 16 0 16 C0 10.72 0 5.44 0 0 Z " fill="#684834" transform="translate(224,224)"/>
<path d="M0 0 C5.28 0 10.56 0 16 0 C16 5.28 16 10.56 16 16 C10.72 16 5.44 16 0 16 C0 10.72 0 5.44 0 0 Z " fill="#7E5641" transform="translate(208,224)"/>
<path d="M0 0 C5.28 0 10.56 0 16 0 C16 5.28 16 10.56 16 16 C10.72 16 5.44 16 0 16 C0 10.72 0 5.44 0 0 Z " fill="#7E5641" transform="translate(160,224)"/>
<path d="M0 0 C5.28 0 10.56 0 16 0 C16 5.28 16 10.56 16 16 C10.72 16 5.44 16 0 16 C0 10.72 0 5.44 0 0 Z " fill="#442C24" transform="translate(144,224)"/>
<path d="M0 0 C5.28 0 10.56 0 16 0 C16 5.28 16 10.56 16 16 C10.72 16 5.44 16 0 16 C0 10.72 0 5.44 0 0 Z " fill="#171416" transform="translate(384,208)"/>
<path d="M0 0 C5.28 0 10.56 0 16 0 C16 5.28 16 10.56 16 16 C10.72 16 5.44 16 0 16 C0 10.72 0 5.44 0 0 Z " fill="#3C4C5C" transform="translate(336,208)"/>
<path d="M0 0 C5.28 0 10.56 0 16 0 C16 5.28 16 10.56 16 16 C10.72 16 5.44 16 0 16 C0 10.72 0 5.44 0 0 Z " fill="#363D49" transform="translate(240,208)"/>
<path d="M0 0 C5.28 0 10.56 0 16 0 C16 5.28 16 10.56 16 16 C10.72 16 5.44 16 0 16 C0 10.72 0 5.44 0 0 Z " fill="#2C2C2A" transform="translate(368,192)"/>
<path d="M0 0 C5.28 0 10.56 0 16 0 C16 5.28 16 10.56 16 16 C10.72 16 5.44 16 0 16 C0 10.72 0 5.44 0 0 Z " fill="#242C34" transform="translate(256,192)"/>
<path d="M0 0 C5.28 0 10.56 0 16 0 C16 5.28 16 10.56 16 16 C10.72 16 5.44 16 0 16 C0 10.72 0 5.44 0 0 Z " fill="#3A342A" transform="translate(224,192)"/>
<path d="M0 0 C5.28 0 10.56 0 16 0 C16 5.28 16 10.56 16 16 C10.72 16 5.44 16 0 16 C0 10.72 0 5.44 0 0 Z " fill="#6C4E40" transform="translate(176,192)"/>
<path d="M0 0 C5.28 0 10.56 0 16 0 C16 5.28 16 10.56 16 16 C10.72 16 5.44 16 0 16 C0 10.72 0 5.44 0 0 Z " fill="#5C3F2F" transform="translate(160,192)"/>
<path d="M0 0 C5.28 0 10.56 0 16 0 C16 5.28 16 10.56 16 16 C10.72 16 5.44 16 0 16 C0 10.72 0 5.44 0 0 Z " fill="#2C2C2A" transform="translate(112,192)"/>
<path d="M0 0 C5.28 0 10.56 0 16 0 C16 5.28 16 10.56 16 16 C10.72 16 5.44 16 0 16 C0 10.72 0 5.44 0 0 Z " fill="#000000" transform="translate(384,176)"/>
<path d="M0 0 C5.28 0 10.56 0 16 0 C16 5.28 16 10.56 16 16 C10.72 16 5.44 16 0 16 C0 10.72 0 5.44 0 0 Z " fill="#4D4040" transform="translate(352,176)"/>
<path d="M0 0 C5.28 0 10.56 0 16 0 C16 5.28 16 10.56 16 16 C10.72 16 5.44 16 0 16 C0 10.72 0 5.44 0 0 Z " fill="#1C2024" transform="translate(336,176)"/>
<path d="M0 0 C5.28 0 10.56 0 16 0 C16 5.28 16 10.56 16 16 C10.72 16 5.44 16 0 16 C0 10.72 0 5.44 0 0 Z " fill="#2C241E" transform="translate(160,176)"/>
<path d="M0 0 C5.28 0 10.56 0 16 0 C16 5.28 16 10.56 16 16 C10.72 16 5.44 16 0 16 C0 10.72 0 5.44 0 0 Z " fill="#171416" transform="translate(144,176)"/>
<path d="M0 0 C5.28 0 10.56 0 16 0 C16 5.28 16 10.56 16 16 C10.72 16 5.44 16 0 16 C0 10.72 0 5.44 0 0 Z " fill="#000000" transform="translate(80,176)"/>
<path d="M0 0 C5.28 0 10.56 0 16 0 C16 5.28 16 10.56 16 16 C10.72 16 5.44 16 0 16 C0 10.72 0 5.44 0 0 Z " fill="#000000" transform="translate(368,160)"/>
<path d="M0 0 C5.28 0 10.56 0 16 0 C16 5.28 16 10.56 16 16 C10.72 16 5.44 16 0 16 C0 10.72 0 5.44 0 0 Z " fill="#24240C" transform="translate(352,160)"/>
<path d="M0 0 C5.28 0 10.56 0 16 0 C16 5.28 16 10.56 16 16 C10.72 16 5.44 16 0 16 C0 10.72 0 5.44 0 0 Z " fill="#242C2C" transform="translate(336,160)"/>
<path d="M0 0 C5.28 0 10.56 0 16 0 C16 5.28 16 10.56 16 16 C10.72 16 5.44 16 0 16 C0 10.72 0 5.44 0 0 Z " fill="#2C2C2A" transform="translate(144,160)"/>
<path d="M0 0 C5.28 0 10.56 0 16 0 C16 5.28 16 10.56 16 16 C10.72 16 5.44 16 0 16 C0 10.72 0 5.44 0 0 Z " fill="#000000" transform="translate(352,144)"/>
<path d="M0 0 C5.28 0 10.56 0 16 0 C16 5.28 16 10.56 16 16 C10.72 16 5.44 16 0 16 C0 10.72 0 5.44 0 0 Z " fill="#373437" transform="translate(320,144)"/>
<path d="M0 0 C5.28 0 10.56 0 16 0 C16 5.28 16 10.56 16 16 C10.72 16 5.44 16 0 16 C0 10.72 0 5.44 0 0 Z " fill="#22242C" transform="translate(192,144)"/>
<path d="M0 0 C5.28 0 10.56 0 16 0 C16 5.28 16 10.56 16 16 C10.72 16 5.44 16 0 16 C0 10.72 0 5.44 0 0 Z " fill="#242424" transform="translate(160,144)"/>
<path d="M0 0 C5.28 0 10.56 0 16 0 C16 5.28 16 10.56 16 16 C10.72 16 5.44 16 0 16 C0 10.72 0 5.44 0 0 Z " fill="#2C2C2A" transform="translate(128,144)"/>
<path d="M0 0 C5.28 0 10.56 0 16 0 C16 5.28 16 10.56 16 16 C10.72 16 5.44 16 0 16 C0 10.72 0 5.44 0 0 Z " fill="#15110B" transform="translate(112,144)"/>
<path d="M0 0 C5.28 0 10.56 0 16 0 C16 5.28 16 10.56 16 16 C10.72 16 5.44 16 0 16 C0 10.72 0 5.44 0 0 Z " fill="#000000" transform="translate(336,128)"/>
<path d="M0 0 C5.28 0 10.56 0 16 0 C16 5.28 16 10.56 16 16 C10.72 16 5.44 16 0 16 C0 10.72 0 5.44 0 0 Z " fill="#342A20" transform="translate(144,128)"/>
<path d="M0 0 C5.28 0 10.56 0 16 0 C16 5.28 16 10.56 16 16 C10.72 16 5.44 16 0 16 C0 10.72 0 5.44 0 0 Z " fill="#000000" transform="translate(320,112)"/>
<path d="M0 0 C5.28 0 10.56 0 16 0 C16 5.28 16 10.56 16 16 C10.72 16 5.44 16 0 16 C0 10.72 0 5.44 0 0 Z " fill="#15110B" transform="translate(304,112)"/>
<path d="M0 0 C5.28 0 10.56 0 16 0 C16 5.28 16 10.56 16 16 C10.72 16 5.44 16 0 16 C0 10.72 0 5.44 0 0 Z " fill="#2C2D36" transform="translate(192,112)"/>
<path d="M0 0 C5.28 0 10.56 0 16 0 C16 5.28 16 10.56 16 16 C10.72 16 5.44 16 0 16 C0 10.72 0 5.44 0 0 Z " fill="#000000" transform="translate(144,112)"/>
<path d="M0 0 C5.28 0 10.56 0 16 0 C16 5.28 16 10.56 16 16 C10.72 16 5.44 16 0 16 C0 10.72 0 5.44 0 0 Z " fill="#15110B" transform="translate(256,96)"/>
<path d="M0 0 C5.28 0 10.56 0 16 0 C16 5.28 16 10.56 16 16 C10.72 16 5.44 16 0 16 C0 10.72 0 5.44 0 0 Z " fill="#44444E" transform="translate(224,96)"/>
<path d="M0 0 C5.28 0 10.56 0 16 0 C16 5.28 16 10.56 16 16 C10.72 16 5.44 16 0 16 C0 10.72 0 5.44 0 0 Z " fill="#242424" transform="translate(192,96)"/>
<path d="M0 0 C5.28 0 10.56 0 16 0 C16 5.28 16 10.56 16 16 C10.72 16 5.44 16 0 16 C0 10.72 0 5.44 0 0 Z " fill="#000000" transform="translate(160,96)"/>
</svg>
